<svg width="24" height="24" viewBox="0 0 24 24" fill="none" xmlns="http://www.w3.org/2000/svg">
<mask id="mask0_411_1849" style="mask-type:alpha" maskUnits="userSpaceOnUse" x="0" y="0" width="24" height="24">
<rect width="23.0256" height="23.0256" fill="#D9D9D9"/>
</mask>
<g mask="url(#mask0_411_1849)">
<path d="M11.5125 21.1069C10.1853 21.1069 8.93807 20.8551 7.7708 20.3514C6.60353 19.8477 5.58816 19.1642 4.7247 18.3007C3.86124 17.4372 3.17767 16.4219 2.67398 15.2546C2.1703 14.0873 1.91846 12.8401 1.91846 11.5129C1.91846 10.1858 2.1703 8.93856 2.67398 7.77129C3.17767 6.60402 3.86124 5.58865 4.7247 4.72519C5.58816 3.86173 6.60353 3.17816 7.7708 2.67447C8.93807 2.17079 10.1853 1.91895 11.5125 1.91895C12.8396 1.91895 14.0868 2.17079 15.2541 2.67447C16.4214 3.17816 17.4368 3.86173 18.3002 4.72519C19.1637 5.58865 19.8472 6.60402 20.3509 7.77129C20.8546 8.93856 21.1065 10.1858 21.1065 11.5129C21.1065 12.8401 20.8546 14.0873 20.3509 15.2546C19.8472 16.4219 19.1637 17.4372 18.3002 18.3007C17.4368 19.1642 16.4214 19.8477 15.2541 20.3514C14.0868 20.8551 12.8396 21.1069 11.5125 21.1069ZM11.5125 19.1881C13.6551 19.1881 15.47 18.4446 16.9571 16.9575C18.4441 15.4705 19.1877 13.6556 19.1877 11.5129C19.1877 9.37029 18.4441 7.55542 16.9571 6.06835C15.47 4.58128 13.6551 3.83775 11.5125 3.83775C9.3698 3.83775 7.55493 4.58128 6.06786 6.06835C4.58079 7.55542 3.83726 9.37029 3.83726 11.5129C3.83726 13.6556 4.58079 15.4705 6.06786 16.9575C7.55493 18.4446 9.3698 19.1881 11.5125 19.1881ZM11.5125 17.2693C9.91346 17.2693 8.55431 16.7097 7.43501 15.5904C6.31571 14.4711 5.75606 13.1119 5.75606 11.5129C5.75606 9.91395 6.31571 8.5548 7.43501 7.4355C8.55431 6.3162 9.91346 5.75655 11.5125 5.75655C13.1115 5.75655 14.4706 6.3162 15.5899 7.4355C16.7092 8.5548 17.2689 9.91395 17.2689 11.5129C17.2689 13.1119 16.7092 14.4711 15.5899 15.5904C14.4706 16.7097 13.1115 17.2693 11.5125 17.2693ZM11.5125 15.3505C12.5678 15.3505 13.4712 14.9748 14.2228 14.2233C14.9743 13.4717 15.3501 12.5683 15.3501 11.5129C15.3501 10.4576 14.9743 9.55417 14.2228 8.80264C13.4712 8.05111 12.5678 7.67535 11.5125 7.67535C10.4571 7.67535 9.55368 8.05111 8.80215 8.80264C8.05062 9.55417 7.67486 10.4576 7.67486 11.5129C7.67486 12.5683 8.05062 13.4717 8.80215 14.2233C9.55368 14.9748 10.4571 15.3505 11.5125 15.3505ZM11.5125 13.4317C10.9848 13.4317 10.5331 13.2439 10.1573 12.8681C9.78154 12.4923 9.59366 12.0406 9.59366 11.5129C9.59366 10.9853 9.78154 10.5336 10.1573 10.1578C10.5331 9.78203 10.9848 9.59415 11.5125 9.59415C12.0401 9.59415 12.4918 9.78203 12.8676 10.1578C13.2434 10.5336 13.4313 10.9853 13.4313 11.5129C13.4313 12.0406 13.2434 12.4923 12.8676 12.8681C12.4918 13.2439 12.0401 13.4317 11.5125 13.4317Z" fill="white"/>
</g>
</svg>
