<svg width="24" height="24" viewBox="0 0 24 24" fill="none" xmlns="http://www.w3.org/2000/svg">
<mask id="mask0_412_1853" style="mask-type:alpha" maskUnits="userSpaceOnUse" x="0" y="0" width="24" height="24">
<rect x="0.0512695" y="0.0800781" width="23.0256" height="23.0256" fill="#D9D9D9"/>
</mask>
<g mask="url(#mask0_412_1853)">
<path d="M11.5639 11.5932C10.5085 11.5932 9.6051 11.2174 8.85357 10.4659C8.10204 9.71434 7.72627 8.81091 7.72627 7.75557C7.72627 6.70023 8.10204 5.79679 8.85357 5.04526C9.6051 4.29373 10.5085 3.91797 11.5639 3.91797C12.6192 3.91797 13.5226 4.29373 14.2742 5.04526C15.0257 5.79679 15.4015 6.70023 15.4015 7.75557C15.4015 8.81091 15.0257 9.71434 14.2742 10.4659C13.5226 11.2174 12.6192 11.5932 11.5639 11.5932ZM3.88867 19.2684V16.582C3.88867 16.0384 4.02858 15.5387 4.30841 15.083C4.58823 14.6273 4.96 14.2795 5.42371 14.0396C6.41509 13.5439 7.42246 13.1722 8.44582 12.9243C9.46918 12.6765 10.5085 12.5526 11.5639 12.5526C12.6192 12.5526 13.6586 12.6765 14.6819 12.9243C15.7053 13.1722 16.7127 13.5439 17.704 14.0396C18.1677 14.2795 18.5395 14.6273 18.8193 15.083C19.0992 15.5387 19.2391 16.0384 19.2391 16.582V19.2684H3.88867ZM5.80747 17.3496H17.3203V16.582C17.3203 16.4062 17.2763 16.2463 17.1884 16.1023C17.1004 15.9584 16.9845 15.8465 16.8406 15.7666C15.9771 15.3348 15.1057 15.011 14.2262 14.7952C13.3468 14.5793 12.4593 14.4714 11.5639 14.4714C10.6684 14.4714 9.78099 14.5793 8.90154 14.7952C8.02209 15.011 7.15063 15.3348 6.28717 15.7666C6.14326 15.8465 6.02733 15.9584 5.93939 16.1023C5.85144 16.2463 5.80747 16.4062 5.80747 16.582V17.3496ZM11.5639 9.67437C12.0915 9.67437 12.5433 9.48649 12.919 9.11072C13.2948 8.73496 13.4827 8.28324 13.4827 7.75557C13.4827 7.2279 13.2948 6.77618 12.919 6.40042C12.5433 6.02465 12.0915 5.83677 11.5639 5.83677C11.0362 5.83677 10.5845 6.02465 10.2087 6.40042C9.83295 6.77618 9.64507 7.2279 9.64507 7.75557C9.64507 8.28324 9.83295 8.73496 10.2087 9.11072C10.5845 9.48649 11.0362 9.67437 11.5639 9.67437Z" fill="white"/>
</g>
</svg>
