<svg width="24" height="24" viewBox="0 0 24 24" fill="none" xmlns="http://www.w3.org/2000/svg">
<mask id="mask0_412_1863" style="mask-type:alpha" maskUnits="userSpaceOnUse" x="0" y="0" width="24" height="24">
<rect x="0.0253906" y="0.0800781" width="23.0256" height="23.0256" fill="#D9D9D9"/>
</mask>
<g mask="url(#mask0_412_1863)">
<path d="M5.78208 22.1464C5.25441 22.1464 4.80269 21.9585 4.42693 21.5827C4.05116 21.2069 3.86328 20.7552 3.86328 20.2276V9.67415C3.86328 9.14648 4.05116 8.69476 4.42693 8.319C4.80269 7.94323 5.25441 7.75535 5.78208 7.75535H8.66028V9.67415H5.78208V20.2276H17.2949V9.67415H14.4167V7.75535H17.2949C17.8226 7.75535 18.2743 7.94323 18.65 8.319C19.0258 8.69476 19.2137 9.14648 19.2137 9.67415V20.2276C19.2137 20.7552 19.0258 21.2069 18.65 21.5827C18.2743 21.9585 17.8226 22.1464 17.2949 22.1464H5.78208ZM10.5791 15.4306V4.70926L9.04404 6.2443L7.70088 4.87715L11.5385 1.03955L15.3761 4.87715L14.0329 6.2443L12.4979 4.70926V15.4306H10.5791Z" fill="white"/>
</g>
</svg>
